<svg width="42" height="42" viewBox="0 0 42 42" fill="none" xmlns="http://www.w3.org/2000/svg">
<rect x="0.5" y="0.5" width="41" height="41" rx="20.5" fill="white"/>
<path d="M16 11H15C12 11 11 12.79 11 15V16V30C11 30.83 11.94 31.3 12.6 30.8L14.31 29.52C14.71 29.22 15.27 29.26 15.63 29.62L17.29 31.29C17.68 31.68 18.32 31.68 18.71 31.29L20.39 29.61C20.74 29.26 21.3 29.22 21.69 29.52L23.4 30.8C24.06 31.29 25 30.82 25 30V13C25 11.9 25.9 11 27 11H16ZM20.25 22.75H15.75C15.34 22.75 15 22.41 15 22C15 21.59 15.34 21.25 15.75 21.25H20.25C20.66 21.25 21 21.59 21 22C21 22.41 20.66 22.75 20.25 22.75ZM21 18.75H15C14.59 18.75 14.25 18.41 14.25 18C14.25 17.59 14.59 17.25 15 17.25H21C21.41 17.25 21.75 17.59 21.75 18C21.75 18.41 21.41 18.75 21 18.75Z" fill="url(#paint0_linear_153_1782)"/>
<path d="M27.01 11V12.5C27.67 12.5 28.3 12.77 28.76 13.22C29.24 13.71 29.5 14.34 29.5 15V17.42C29.5 18.16 29.17 18.5 28.42 18.5H26.5V13.01C26.5 12.73 26.73 12.5 27.01 12.5V11ZM27.01 11C25.9 11 25 11.9 25 13.01V20H28.42C30 20 31 19 31 17.42V15C31 13.9 30.55 12.9 29.83 12.17C29.1 11.45 28.11 11.01 27.01 11C27.01 11 27.02 11 27.01 11Z" fill="url(#paint1_linear_153_1782)"/>
<rect x="0.5" y="0.5" width="41" height="41" rx="20.5" stroke="#00A59B"/>
<defs>
<linearGradient id="paint0_linear_153_1782" x1="27.2556" y1="25.3968" x2="10.6886" y2="25.1072" gradientUnits="userSpaceOnUse">
<stop stop-color="#00A59B"/>
<stop offset="1" stop-color="#015591"/>
</linearGradient>
<linearGradient id="paint1_linear_153_1782" x1="31.0958" y1="17.2952" x2="24.8827" y2="17.2021" gradientUnits="userSpaceOnUse">
<stop stop-color="#00A59B"/>
<stop offset="1" stop-color="#015591"/>
</linearGradient>
</defs>
</svg>
