<svg width="16" height="16" viewBox="0 0 16 16" fill="none" xmlns="http://www.w3.org/2000/svg">
<path fill-rule="evenodd" clip-rule="evenodd" d="M6.26737 2.00195C7.03737 0.66862 8.9627 0.66862 9.73204 2.00195L14.6354 10.5006C15.4047 11.834 14.442 13.5006 12.9027 13.5006H3.0967C1.55737 13.5006 0.595371 11.834 1.3647 10.5006L6.2667 2.00195H6.26737ZM8.00004 5.49995C8.13265 5.49995 8.25982 5.55263 8.35359 5.6464C8.44736 5.74017 8.50004 5.86734 8.50004 5.99995V8.49995C8.50004 8.63256 8.44736 8.75974 8.35359 8.85351C8.25982 8.94727 8.13265 8.99995 8.00004 8.99995C7.86743 8.99995 7.74025 8.94727 7.64648 8.85351C7.55272 8.75974 7.50004 8.63256 7.50004 8.49995V5.99995C7.50004 5.86734 7.55272 5.74017 7.64648 5.6464C7.74025 5.55263 7.86743 5.49995 8.00004 5.49995ZM8.00004 11C8.13265 11 8.25982 10.9473 8.35359 10.8535C8.44736 10.7597 8.50004 10.6326 8.50004 10.5C8.50004 10.3673 8.44736 10.2402 8.35359 10.1464C8.25982 10.0526 8.13265 9.99995 8.00004 9.99995C7.86743 9.99995 7.74025 10.0526 7.64648 10.1464C7.55272 10.2402 7.50004 10.3673 7.50004 10.5C7.50004 10.6326 7.55272 10.7597 7.64648 10.8535C7.74025 10.9473 7.86743 11 8.00004 11Z" fill="#DB5959"/>
</svg>
