<svg width="20" height="20" viewBox="0 0 20 20" fill="none" xmlns="http://www.w3.org/2000/svg">
<path d="M16.1667 16.6667H8C7.86739 16.6667 7.74021 16.614 7.64645 16.5202C7.55268 16.4265 7.5 16.2993 7.5 16.1667V8C7.5 7.86739 7.55268 7.74021 7.64645 7.64645C7.74021 7.55268 7.86739 7.5 8 7.5H16.1667C16.2993 7.5 16.4265 7.55268 16.5202 7.64645C16.614 7.74021 16.6667 7.86739 16.6667 8V16.1667C16.6667 16.2993 16.614 16.4265 16.5202 16.5202C16.4265 16.614 16.2993 16.6667 16.1667 16.6667Z" stroke="#00A59B" stroke-width="1.25" stroke-linecap="round" stroke-linejoin="round"/>
<path d="M12.5 7.50016V3.8335C12.5 3.70089 12.4473 3.57371 12.3536 3.47994C12.2598 3.38617 12.1326 3.3335 12 3.3335H3.83334C3.70073 3.3335 3.57355 3.38617 3.47978 3.47994C3.38601 3.57371 3.33334 3.70089 3.33334 3.8335V12.0002C3.33334 12.1328 3.38601 12.2599 3.47978 12.3537C3.57355 12.4475 3.70073 12.5002 3.83334 12.5002H7.5" stroke="#00A59B" stroke-width="1.25" stroke-linecap="round" stroke-linejoin="round"/>
</svg>
