<svg width="17" height="16" viewBox="0 0 17 16" fill="none" xmlns="http://www.w3.org/2000/svg">
<path d="M3.5 2.5C2.96957 2.5 2.46086 2.71071 2.08579 3.08579C1.71071 3.46086 1.5 3.96957 1.5 4.5V5H15.5V4.5C15.5 3.96957 15.2893 3.46086 14.9142 3.08579C14.5391 2.71071 14.0304 2.5 13.5 2.5H3.5Z" fill="white"/>
<path fill-rule="evenodd" clip-rule="evenodd" d="M15.5 6.5H1.5V11.5C1.5 12.0304 1.71071 12.5391 2.08579 12.9142C2.46086 13.2893 2.96957 13.5 3.5 13.5H13.5C14.0304 13.5 14.5391 13.2893 14.9142 12.9142C15.2893 12.5391 15.5 12.0304 15.5 11.5V6.5ZM3.5 9C3.5 8.86739 3.55268 8.74022 3.64645 8.64645C3.74021 8.55268 3.86739 8.5 4 8.5H8C8.13261 8.5 8.25979 8.55268 8.35355 8.64645C8.44732 8.74022 8.5 8.86739 8.5 9C8.5 9.13261 8.44732 9.25978 8.35355 9.35355C8.25979 9.44732 8.13261 9.5 8 9.5H4C3.86739 9.5 3.74021 9.44732 3.64645 9.35355C3.55268 9.25978 3.5 9.13261 3.5 9ZM4 10.5C3.86739 10.5 3.74021 10.5527 3.64645 10.6464C3.55268 10.7402 3.5 10.8674 3.5 11C3.5 11.1326 3.55268 11.2598 3.64645 11.3536C3.74021 11.4473 3.86739 11.5 4 11.5H6C6.13261 11.5 6.25979 11.4473 6.35355 11.3536C6.44732 11.2598 6.5 11.1326 6.5 11C6.5 10.8674 6.44732 10.7402 6.35355 10.6464C6.25979 10.5527 6.13261 10.5 6 10.5H4Z" fill="white"/>
</svg>
