<svg width="16" height="16" viewBox="0 0 16 16" fill="none" xmlns="http://www.w3.org/2000/svg">
<path d="M1.33605 14.6668L2.23738 11.3548C1.64347 10.3367 1.33145 9.17882 1.33338 8.00016C1.33338 4.31816 4.31805 1.3335 8.00005 1.3335C11.682 1.3335 14.6667 4.31816 14.6667 8.00016C14.6667 11.6822 11.682 14.6668 8.00005 14.6668C6.8219 14.6687 5.66449 14.3569 4.64672 13.7635L1.33605 14.6668ZM5.59405 4.87216C5.50796 4.87751 5.42383 4.90018 5.34672 4.93883C5.2744 4.97978 5.20838 5.03098 5.15072 5.09083C5.07072 5.16616 5.02538 5.2315 4.97672 5.29483C4.73032 5.61549 4.59779 6.00911 4.60005 6.4135C4.60138 6.74016 4.68672 7.05816 4.82005 7.3555C5.09272 7.95683 5.54138 8.5935 6.13405 9.1835C6.27672 9.3255 6.41605 9.46816 6.56605 9.60083C7.30164 10.2485 8.17822 10.7155 9.12605 10.9648L9.50538 11.0228C9.62872 11.0295 9.75205 11.0202 9.87605 11.0142C10.0702 11.0041 10.2598 10.9516 10.4314 10.8602C10.5421 10.8015 10.5941 10.7722 10.6867 10.7135C10.6867 10.7135 10.7154 10.6948 10.7701 10.6535C10.8601 10.5868 10.9154 10.5395 10.9901 10.4615C11.0454 10.4042 11.0934 10.3368 11.13 10.2602C11.182 10.1515 11.234 9.94416 11.2554 9.7715C11.2714 9.6395 11.2667 9.5675 11.2647 9.52283C11.262 9.4515 11.2027 9.3775 11.1381 9.34616L10.75 9.17216C10.75 9.17216 10.17 8.9195 9.81605 8.75816C9.77873 8.74189 9.73873 8.73263 9.69805 8.73083C9.65244 8.72615 9.60635 8.73128 9.56288 8.74588C9.51942 8.76048 9.47958 8.78422 9.44605 8.8155V8.81416C9.44272 8.81416 9.39805 8.85216 8.91605 9.43616C8.88838 9.47334 8.85028 9.50143 8.80658 9.51687C8.76289 9.5323 8.71559 9.53438 8.67072 9.52283C8.62728 9.51121 8.58473 9.49651 8.54338 9.47883C8.46072 9.44416 8.43205 9.43083 8.37538 9.40616L8.37205 9.40483C7.99066 9.23831 7.63753 9.01339 7.32538 8.73816C7.24138 8.66483 7.16338 8.58483 7.08338 8.5075C6.8211 8.25632 6.59253 7.97217 6.40338 7.66216L6.36405 7.59883C6.3358 7.55627 6.31296 7.51036 6.29605 7.46216C6.27072 7.36416 6.33672 7.2855 6.33672 7.2855C6.33672 7.2855 6.49872 7.10816 6.57405 7.01216C6.63678 6.93238 6.6953 6.84938 6.74938 6.7635C6.82805 6.63683 6.85272 6.50683 6.81138 6.40616C6.62472 5.95016 6.43138 5.49616 6.23272 5.0455C6.19338 4.95616 6.07672 4.89216 5.97072 4.8795C5.93472 4.8755 5.89872 4.8715 5.86272 4.86883C5.77319 4.86438 5.68347 4.86527 5.59405 4.8715V4.87216Z" fill="#315FE7"/>
</svg>
