<svg width="85" height="80" viewBox="0 0 85 80" fill="none" xmlns="http://www.w3.org/2000/svg">
<rect x="0.5" y="8.5" width="71" height="71" rx="35.5" fill="url(#paint0_linear_65_1098)"/>
<path fill-rule="evenodd" clip-rule="evenodd" d="M28.5 34V35.25H25.1883C23.5883 35.25 22.2483 36.4567 22.08 38.0483L19.975 58.0483C19.9292 58.4839 19.9755 58.9242 20.1109 59.3408C20.2462 59.7573 20.4676 60.1407 20.7607 60.4662C21.0538 60.7917 21.412 61.0519 21.8121 61.23C22.2123 61.4081 22.6454 61.5001 23.0833 61.5H48.9167C49.3546 61.5001 49.7877 61.4081 50.1879 61.23C50.588 61.0519 50.9462 60.7917 51.2393 60.4662C51.5324 60.1407 51.7538 59.7573 51.8892 59.3408C52.0245 58.9242 52.0708 58.4839 52.025 58.0483L49.92 38.0483C49.8393 37.2802 49.477 36.5693 48.903 36.0525C48.329 35.5358 47.584 35.2499 46.8117 35.25H43.5V34C43.5 32.0109 42.7098 30.1032 41.3033 28.6967C39.8968 27.2902 37.9891 26.5 36 26.5C34.0109 26.5 32.1032 27.2902 30.6967 28.6967C29.2902 30.1032 28.5 32.0109 28.5 34ZM36 29C34.6739 29 33.4022 29.5268 32.4645 30.4645C31.5268 31.4021 31 32.6739 31 34V35.25H41V34C41 32.6739 40.4732 31.4021 39.5355 30.4645C38.5979 29.5268 37.3261 29 36 29ZM31 42.75C31 44.0761 31.5268 45.3479 32.4645 46.2855C33.4022 47.2232 34.6739 47.75 36 47.75C37.3261 47.75 38.5979 47.2232 39.5355 46.2855C40.4732 45.3479 41 44.0761 41 42.75V41.5C41 41.1685 41.1317 40.8505 41.3661 40.6161C41.6005 40.3817 41.9185 40.25 42.25 40.25C42.5815 40.25 42.8995 40.3817 43.1339 40.6161C43.3683 40.8505 43.5 41.1685 43.5 41.5V42.75C43.5 44.7391 42.7098 46.6468 41.3033 48.0533C39.8968 49.4598 37.9891 50.25 36 50.25C34.0109 50.25 32.1032 49.4598 30.6967 48.0533C29.2902 46.6468 28.5 44.7391 28.5 42.75V41.5C28.5 41.1685 28.6317 40.8505 28.8661 40.6161C29.1005 40.3817 29.4185 40.25 29.75 40.25C30.0815 40.25 30.3995 40.3817 30.6339 40.6161C30.8683 40.8505 31 41.1685 31 41.5V42.75Z" fill="white"/>
<path fill-rule="evenodd" clip-rule="evenodd" d="M55.5 16C55.5 8.82 61.32 3 68.5 3C75.68 3 81.5 8.82 81.5 16C81.5 23.18 75.68 29 68.5 29C61.32 29 55.5 23.18 55.5 16ZM73.3133 13.5813C73.3933 13.4747 73.4512 13.3532 73.4836 13.2239C73.5159 13.0946 73.5221 12.9602 73.5018 12.8285C73.4815 12.6968 73.435 12.5704 73.3651 12.4569C73.2953 12.3434 73.2034 12.245 73.095 12.1675C72.9866 12.09 72.8638 12.035 72.7337 12.0056C72.6037 11.9763 72.4692 11.9732 72.338 11.9966C72.2068 12.02 72.0816 12.0694 71.9697 12.1419C71.8579 12.2144 71.7616 12.3085 71.6867 12.4187L67.372 18.4587L65.2067 16.2933C65.0171 16.1167 64.7664 16.0205 64.5073 16.0251C64.2482 16.0297 64.0011 16.1346 63.8178 16.3178C63.6346 16.5011 63.5297 16.7482 63.5251 17.0073C63.5205 17.2664 63.6167 17.5171 63.7933 17.7067L66.7933 20.7067C66.896 20.8092 67.0197 20.8882 67.156 20.9382C67.2922 20.9881 67.4377 21.0078 67.5824 20.9959C67.727 20.984 67.8673 20.9407 67.9935 20.8691C68.1197 20.7975 68.2289 20.6993 68.3133 20.5813L73.3133 13.5813Z" fill="#0FC70B"/>
<rect x="0.5" y="8.5" width="71" height="71" rx="35.5" stroke="#E6E7E8"/>
<defs>
<linearGradient id="paint0_linear_65_1098" x1="73.15" y1="58.3617" x2="-1.38632" y2="56.6856" gradientUnits="userSpaceOnUse">
<stop stop-color="#00A59B"/>
<stop offset="1" stop-color="#015591"/>
</linearGradient>
</defs>
</svg>
