<svg width="17" height="16" viewBox="0 0 17 16" fill="none" xmlns="http://www.w3.org/2000/svg">
<path fill-rule="evenodd" clip-rule="evenodd" d="M5.49998 4V4.5H4.17531C3.53531 4.5 2.99931 4.98267 2.93198 5.61933L2.08998 13.6193C2.07167 13.7936 2.09018 13.9697 2.14432 14.1363C2.19846 14.3029 2.28702 14.4563 2.40426 14.5865C2.52149 14.7167 2.66478 14.8207 2.82483 14.892C2.98488 14.9632 3.15812 15 3.33331 15H13.6666C13.8418 15 14.0151 14.9632 14.1751 14.892C14.3352 14.8207 14.4785 14.7167 14.5957 14.5865C14.7129 14.4563 14.8015 14.3029 14.8556 14.1363C14.9098 13.9697 14.9283 13.7936 14.91 13.6193L14.068 5.61933C14.0357 5.3121 13.8908 5.0277 13.6612 4.82101C13.4316 4.61431 13.1336 4.49996 12.8246 4.5H11.5V4C11.5 3.20435 11.1839 2.44129 10.6213 1.87868C10.0587 1.31607 9.29563 1 8.49998 1C7.70433 1 6.94127 1.31607 6.37866 1.87868C5.81605 2.44129 5.49998 3.20435 5.49998 4ZM8.49998 2C7.96955 2 7.46084 2.21071 7.08576 2.58579C6.71069 2.96086 6.49998 3.46957 6.49998 4V4.5H10.5V4C10.5 3.46957 10.2893 2.96086 9.91419 2.58579C9.53912 2.21071 9.03041 2 8.49998 2ZM6.49998 7.5C6.49998 8.03043 6.71069 8.53914 7.08576 8.91421C7.46084 9.28929 7.96955 9.5 8.49998 9.5C9.03041 9.5 9.53912 9.28929 9.91419 8.91421C10.2893 8.53914 10.5 8.03043 10.5 7.5V7C10.5 6.86739 10.5527 6.74022 10.6464 6.64645C10.7402 6.55268 10.8674 6.5 11 6.5C11.1326 6.5 11.2598 6.55268 11.3535 6.64645C11.4473 6.74022 11.5 6.86739 11.5 7V7.5C11.5 8.29565 11.1839 9.05871 10.6213 9.62132C10.0587 10.1839 9.29563 10.5 8.49998 10.5C7.70433 10.5 6.94127 10.1839 6.37866 9.62132C5.81605 9.05871 5.49998 8.29565 5.49998 7.5V7C5.49998 6.86739 5.55266 6.74022 5.64643 6.64645C5.74019 6.55268 5.86737 6.5 5.99998 6.5C6.13259 6.5 6.25976 6.55268 6.35353 6.64645C6.4473 6.74022 6.49998 6.86739 6.49998 7V7.5Z" fill="white"/>
</svg>
