<svg width="69" height="24" viewBox="0 0 69 24" fill="none" xmlns="http://www.w3.org/2000/svg">
<rect width="69" height="24" rx="6" fill="#F2FBFB"/>
<g clip-path="url(#clip0_168_800)">
<path d="M23.0064 16.9656L21.2138 15.9366C21.1836 15.9193 21.1502 15.9085 21.1157 15.9049C21.0812 15.9013 21.0463 15.905 21.0132 15.9157C20.9802 15.9264 20.9497 15.9438 20.9239 15.967C20.898 15.9901 20.8772 16.0184 20.8629 16.0501C20.1011 17.7406 20.1351 17.5742 20.1351 17.9024C20.1354 18.1283 20.1837 18.3516 20.2768 18.5575C20.3698 18.7633 20.5055 18.9471 20.6749 19.0966C20.8911 19.2878 21.1549 19.4171 21.4384 19.471C21.722 19.5249 22.0148 19.5013 22.286 19.4027C22.5573 19.3041 22.7969 19.1342 22.9797 18.9109C23.1625 18.6876 23.2817 18.4191 23.3247 18.1337C23.4042 17.5722 23.1591 17.0532 23.0064 16.9656Z" fill="#4B64AA"/>
<path d="M12.5 8H9C8.58579 8 8.25 8.33579 8.25 8.75V11.5C8.25 11.9142 8.58579 12.25 9 12.25H12.5C12.9142 12.25 13.25 11.9142 13.25 11.5V8.75C13.25 8.33579 12.9142 8 12.5 8Z" fill="#4B64AA"/>
<path d="M16.25 7C16.9404 7 17.5 6.44036 17.5 5.75C17.5 5.05964 16.9404 4.5 16.25 4.5C15.5596 4.5 15 5.05964 15 5.75C15 6.44036 15.5596 7 16.25 7Z" fill="#4B64AA"/>
<path d="M14.7419 16.9752H12.0338C12.0011 16.9752 11.9688 16.9816 11.9386 16.9941C11.9084 17.0066 11.8809 17.025 11.8578 17.0481C11.8347 17.0712 11.8164 17.0986 11.8039 17.1288C11.7914 17.159 11.7849 17.1913 11.7849 17.224V17.8198C11.7867 18.2438 11.9563 18.6498 12.2568 18.949C12.5572 19.2482 12.9639 19.4162 13.3879 19.4162C13.8119 19.4162 14.2186 19.2482 14.519 18.949C14.8194 18.6498 14.9891 18.2438 14.9908 17.8198V17.224C14.9908 17.1913 14.9844 17.159 14.9719 17.1288C14.9594 17.0986 14.941 17.0712 14.9179 17.0481C14.8948 17.025 14.8674 17.0066 14.8372 16.9941C14.807 16.9816 14.7746 16.9752 14.7419 16.9752Z" fill="#4B64AA"/>
<path d="M22.4848 15.608C21.7434 15.1821 20.9128 15.3406 20.789 15.4991L19.4868 17.1674C19.3318 17.3654 19.5098 17.9835 19.6355 18.2468C19.6543 18.2861 19.6831 18.3198 19.719 18.3445C19.7549 18.3692 19.7966 18.384 19.84 18.3875C19.8834 18.391 19.927 18.3831 19.9664 18.3645C20.0058 18.346 20.0396 18.3174 20.0645 18.2816C20.6886 17.3837 22.1643 16.9931 23.1432 17.4583C23.1829 17.477 23.2268 17.485 23.2705 17.4813C23.3143 17.4777 23.3563 17.4625 23.3923 17.4374C23.4283 17.4123 23.457 17.3781 23.4755 17.3383C23.4941 17.2985 23.5018 17.2545 23.4978 17.2108C23.4728 16.8812 23.3674 16.5627 23.1908 16.2833C23.0142 16.0039 22.7718 15.772 22.4848 15.608Z" fill="#90ABE2"/>
<path d="M18.5513 9.49476C17.2297 9.11905 16.7399 8.70599 16.3635 8.2848C16.3895 8.09314 16.3548 7.89816 16.2643 7.72721C16.1739 7.55626 16.0322 7.41791 15.8591 7.33155C15.7356 7.27257 15.6003 7.24224 15.4634 7.24281C15.3265 7.24337 15.1915 7.27482 15.0685 7.33481C14.9454 7.39481 14.8375 7.48179 14.7527 7.58929C14.6679 7.69679 14.6085 7.82204 14.5789 7.95569L13.8616 11.3831C13.8404 11.4849 13.8408 11.59 13.8627 11.6916C13.8846 11.7933 13.9275 11.8892 13.9887 11.9733C14.0498 12.0574 14.1279 12.1277 14.2179 12.1798C14.3079 12.2319 14.4077 12.2647 14.5111 12.2759L15.7401 12.4119C15.8035 12.4186 15.8618 12.4494 15.9031 12.4979C15.9444 12.5464 15.9655 12.6089 15.962 12.6725L15.7404 16.422C15.7384 16.4559 15.7433 16.4898 15.7549 16.5216C15.7665 16.5535 15.7845 16.5827 15.8077 16.6074C15.831 16.632 15.8591 16.6517 15.8902 16.6651C15.9213 16.6786 15.9549 16.6855 15.9888 16.6856H16.9866C17.0481 16.6855 17.1074 16.6628 17.153 16.6216C17.1987 16.5805 17.2276 16.5239 17.234 16.4628L17.6925 12.1281C17.7097 11.9636 17.6717 11.7982 17.5845 11.6577C17.4974 11.5172 17.366 11.4097 17.2111 11.3521L15.9861 10.8949C15.9298 10.874 15.883 10.8334 15.8544 10.7806C15.8258 10.7278 15.8173 10.6664 15.8306 10.6078L16.017 9.80409C16.7201 10.3661 17.5839 10.6896 18.4832 10.7278C18.5492 10.7278 18.6125 10.7016 18.6592 10.6549C18.7058 10.6082 18.7321 10.5449 18.7321 10.4789V9.73414C18.7321 9.68001 18.7144 9.62736 18.6818 9.58416C18.6492 9.54096 18.6033 9.50957 18.5513 9.49476Z" fill="#4B64AA"/>
<path d="M20.7494 13.6869C20.2125 13.3308 19.8112 12.4252 19.7505 11.4725H20.2292C20.4272 11.4726 20.6171 11.3942 20.7573 11.2544C20.8975 11.1147 20.9765 10.925 20.9771 10.727V10.2306C20.9765 10.0327 20.8975 9.84301 20.7573 9.70328C20.6171 9.56354 20.4272 9.48513 20.2293 9.48523H18.4832C18.4171 9.48523 18.3538 9.51146 18.3072 9.55814C18.2605 9.60481 18.2343 9.66812 18.2343 9.73413V16.1877H16.1398C16.0999 16.1882 16.0609 16.1767 16.0277 16.1547C15.5482 15.8306 15.062 15.246 15.469 14.3009C15.4853 14.2631 15.492 14.2218 15.4884 14.1807C15.4848 14.1396 15.471 14.1001 15.4484 14.0657C15.4257 14.0312 15.3948 14.003 15.3586 13.9834C15.3223 13.9639 15.2817 13.9536 15.2405 13.9536H12.0648C12.0247 13.9536 11.9852 13.9634 11.9496 13.982C11.914 14.0006 11.8835 14.0275 11.8606 14.0604C11.7143 14.2706 10.442 16.1455 10.7909 17.2339C10.8506 17.4254 10.9671 17.5942 11.1249 17.7179C11.2827 17.8417 11.4744 17.9146 11.6746 17.9269L19.27 17.9268C19.5201 17.9268 21.4275 16.2137 21.4127 14.8929C21.408 14.6532 21.3452 14.4183 21.2297 14.2082C21.1141 13.9981 20.9493 13.8192 20.7494 13.6869Z" fill="#DFE4F9"/>
<path d="M15.2405 12.7124H11.2494C11.1832 12.7127 11.1199 12.7392 11.0733 12.7861C11.0266 12.833 11.0004 12.8965 11.0005 12.9627C11.0009 13.3574 11.1579 13.7358 11.437 14.0149C11.7161 14.294 12.0945 14.451 12.4893 14.4514H15.2405C15.3065 14.4514 15.3698 14.4252 15.4165 14.3785C15.4632 14.3318 15.4894 14.2685 15.4894 14.2025V12.9613C15.4894 12.8953 15.4632 12.832 15.4165 12.7853C15.3698 12.7386 15.3065 12.7124 15.2405 12.7124Z" fill="#90ABE2"/>
<path d="M11.8967 10.2432L11.8958 10.244C11.8135 10.3221 11.7768 10.4398 11.7989 10.5534L11.7993 10.5543C11.8369 10.7444 11.7091 10.9266 11.5236 10.9479H11.5232C11.4121 10.9609 11.3156 11.0334 11.2693 11.1393V11.1397C11.1924 11.3163 10.9856 11.3862 10.8236 11.2898C10.7747 11.2608 10.7208 11.2464 10.6665 11.2464C10.5197 11.2464 10.4991 11.3332 10.3528 11.3332C10.2329 11.3332 10.1172 11.2621 10.0637 11.1393C10.0171 11.0317 9.91998 10.9607 9.8102 10.9479H9.80936C9.62431 10.9262 9.49649 10.7439 9.53408 10.5543V10.5534C9.57235 10.3605 9.43976 10.2481 9.43675 10.2432C9.29892 10.1125 9.29892 9.88732 9.43675 9.75671L9.43758 9.75628C9.57723 9.62373 9.53377 9.45097 9.53408 9.446C9.49648 9.25593 9.62388 9.07367 9.80936 9.0524L9.8102 9.05198C9.92131 9.0394 10.0178 8.96649 10.0637 8.8606C10.1172 8.7378 10.2329 8.66663 10.3528 8.66663C10.4059 8.66663 10.4597 8.68052 10.5094 8.71002C10.6081 8.76783 10.7247 8.76792 10.8236 8.71002C10.8733 8.68052 10.9271 8.66663 10.9802 8.66663C11.1005 8.66663 11.2158 8.7378 11.2692 8.86017L11.2697 8.8606C11.3156 8.96649 11.4121 9.0394 11.5232 9.05198H11.524C11.7095 9.07367 11.8369 9.25593 11.7993 9.44556V9.44686C11.7768 9.56056 11.8135 9.67773 11.8958 9.75628L11.8966 9.75714C12.0345 9.88734 12.0345 10.1126 11.8967 10.2432Z" fill="#00A59B"/>
<path d="M10.1391 9.70561C10.1654 9.70561 10.1866 9.68351 10.1866 9.65624C10.1866 9.62898 10.1654 9.60687 10.1391 9.60687H9.83135C9.80509 9.60687 9.78383 9.62898 9.78383 9.65624V10.3336C9.78383 10.3609 9.80508 10.383 9.83135 10.383C9.85762 10.383 9.87887 10.3609 9.87887 10.3336V9.99744H10.1391C10.1654 9.99744 10.1866 9.97533 10.1866 9.94807C10.1866 9.9208 10.1654 9.8987 10.1391 9.8987H9.87887V9.7056H10.1391V9.70561Z" fill="white"/>
<path d="M10.6369 9.80211C10.6369 9.69444 10.5526 9.60681 10.4489 9.60681H10.2816C10.2554 9.60681 10.2341 9.62892 10.2341 9.65618V9.94784V9.94817V10.3336C10.2341 10.3608 10.2554 10.3829 10.2816 10.3829C10.3079 10.3829 10.3291 10.3608 10.3291 10.3336V10.0917L10.5331 10.3639C10.5491 10.3852 10.5789 10.3894 10.5998 10.3725C10.6205 10.3558 10.6242 10.3248 10.6081 10.3032L10.3788 9.99737H10.4489C10.5526 9.99738 10.6369 9.90979 10.6369 9.80211ZM10.3291 9.89864V9.70555H10.4489C10.5001 9.70555 10.5419 9.74886 10.5419 9.80212C10.5419 9.85534 10.5001 9.89865 10.4489 9.89865H10.3291V9.89864Z" fill="white"/>
<path d="M11.0394 9.70555C11.0657 9.70555 11.0869 9.68344 11.0869 9.65618C11.0869 9.62892 11.0657 9.60681 11.0394 9.60681H10.7317C10.7054 9.60681 10.6841 9.62892 10.6841 9.65618V10.3336C10.6841 10.3608 10.7054 10.3829 10.7317 10.3829H11.0394C11.0657 10.3829 11.0869 10.3608 11.0869 10.3336C11.0869 10.3063 11.0657 10.2842 11.0394 10.2842H10.7792V10.0443H11.0394C11.0657 10.0443 11.0869 10.0221 11.0869 9.99488C11.0869 9.96762 11.0657 9.94552 11.0394 9.94552H10.7792V9.70553H11.0394V9.70555Z" fill="white"/>
<path d="M11.502 10.0443C11.5282 10.0443 11.5495 10.0222 11.5495 9.9949C11.5495 9.96764 11.5282 9.94553 11.502 9.94553H11.2417V9.70555H11.502C11.5282 9.70555 11.5495 9.68344 11.5495 9.65618C11.5495 9.62892 11.5282 9.60681 11.502 9.60681H11.1942C11.168 9.60681 11.1467 9.62892 11.1467 9.65618V10.3336C11.1467 10.3608 11.168 10.3829 11.1942 10.3829H11.502C11.5282 10.3829 11.5495 10.3608 11.5495 10.3336C11.5495 10.3063 11.5282 10.2842 11.502 10.2842H11.2417V10.0443H11.502V10.0443Z" fill="white"/>
</g>
<path d="M31.296 11.072C30.6827 11.072 30.1653 10.9573 29.744 10.728C29.3227 10.4933 29.0027 10.16 28.784 9.728C28.5707 9.296 28.464 8.78133 28.464 8.184C28.464 7.736 28.5253 7.336 28.648 6.984C28.776 6.62667 28.9573 6.32267 29.192 6.072C29.432 5.816 29.7227 5.62133 30.064 5.488C30.4107 5.35467 30.8027 5.288 31.24 5.288C31.56 5.288 31.8747 5.33067 32.184 5.416C32.4933 5.496 32.776 5.62933 33.032 5.816C33.1067 5.86933 33.1547 5.93067 33.176 6C33.1973 6.06933 33.1973 6.14133 33.176 6.216C33.16 6.28533 33.1253 6.34667 33.072 6.4C33.024 6.45333 32.9627 6.48533 32.888 6.496C32.8187 6.50667 32.7413 6.48533 32.656 6.432C32.448 6.288 32.2293 6.184 32 6.12C31.7707 6.05067 31.5173 6.016 31.24 6.016C30.824 6.016 30.472 6.10133 30.184 6.272C29.9013 6.44267 29.688 6.69067 29.544 7.016C29.4 7.336 29.328 7.72533 29.328 8.184C29.328 8.89333 29.496 9.432 29.832 9.8C30.168 10.168 30.6667 10.352 31.328 10.352C31.568 10.352 31.8027 10.3307 32.032 10.288C32.2667 10.24 32.4907 10.1733 32.704 10.088L32.536 10.504V8.64H31.504C31.3973 8.64 31.312 8.61333 31.248 8.56C31.1893 8.50133 31.16 8.42133 31.16 8.32C31.16 8.21867 31.1893 8.144 31.248 8.096C31.312 8.04267 31.3973 8.016 31.504 8.016H32.888C33 8.016 33.0853 8.04533 33.144 8.104C33.2027 8.16267 33.232 8.248 33.232 8.36V10.376C33.232 10.472 33.2133 10.5547 33.176 10.624C33.144 10.688 33.088 10.736 33.008 10.768C32.7787 10.8587 32.5093 10.9333 32.2 10.992C31.8907 11.0453 31.5893 11.072 31.296 11.072ZM34.9236 11.056C34.7902 11.056 34.6862 11.0187 34.6116 10.944C34.5422 10.8693 34.5076 10.7653 34.5076 10.632V5.784C34.5076 5.64533 34.5449 5.54133 34.6196 5.472C34.6942 5.39733 34.7982 5.36 34.9316 5.36H36.8436C37.4516 5.36 37.9209 5.504 38.2516 5.792C38.5822 6.08 38.7476 6.488 38.7476 7.016C38.7476 7.35733 38.6729 7.65067 38.5236 7.896C38.3742 8.14133 38.1556 8.328 37.8676 8.456C37.5849 8.584 37.2436 8.648 36.8436 8.648L36.9156 8.536H37.1236C37.3369 8.536 37.5209 8.58933 37.6756 8.696C37.8356 8.80267 37.9796 8.97333 38.1076 9.208L38.7956 10.488C38.8489 10.584 38.8729 10.6773 38.8676 10.768C38.8676 10.8533 38.8356 10.9227 38.7716 10.976C38.7129 11.0293 38.6276 11.056 38.5156 11.056C38.3982 11.056 38.3022 11.032 38.2276 10.984C38.1582 10.9307 38.0942 10.8533 38.0356 10.752L37.1956 9.2C37.0836 8.992 36.9556 8.85333 36.8116 8.784C36.6676 8.70933 36.4782 8.672 36.2436 8.672H35.3396V10.632C35.3396 10.7653 35.3049 10.8693 35.2356 10.944C35.1662 11.0187 35.0622 11.056 34.9236 11.056ZM35.3396 8.048H36.7076C37.1129 8.048 37.4196 7.96267 37.6276 7.792C37.8356 7.62133 37.9396 7.368 37.9396 7.032C37.9396 6.70133 37.8356 6.45067 37.6276 6.28C37.4196 6.10933 37.1129 6.024 36.7076 6.024H35.3396V8.048ZM39.7959 11.056C39.6892 11.056 39.6039 11.032 39.5399 10.984C39.4759 10.936 39.4385 10.872 39.4279 10.792C39.4172 10.712 39.4332 10.6213 39.4759 10.52L41.6439 5.656C41.6972 5.528 41.7639 5.43733 41.8439 5.384C41.9292 5.33067 42.0225 5.304 42.1239 5.304C42.2199 5.304 42.3079 5.33067 42.3879 5.384C42.4732 5.43733 42.5425 5.528 42.5959 5.656L44.7639 10.52C44.8119 10.6213 44.8305 10.7147 44.8199 10.8C44.8092 10.88 44.7745 10.944 44.7159 10.992C44.6572 11.0347 44.5745 11.056 44.4679 11.056C44.3505 11.056 44.2572 11.0267 44.1879 10.968C44.1185 10.9093 44.0572 10.8187 44.0039 10.696L43.4439 9.4L43.8199 9.624H40.4119L40.7799 9.4L40.2279 10.696C40.1745 10.824 40.1159 10.9173 40.0519 10.976C39.9879 11.0293 39.9025 11.056 39.7959 11.056ZM42.1079 6.28L40.8999 9.144L40.6999 8.952H43.5239L43.3399 9.144L42.1239 6.28H42.1079ZM46.8933 11.056C46.76 11.056 46.656 11.0187 46.5813 10.944C46.512 10.8693 46.4773 10.7653 46.4773 10.632V6.056H44.7813C44.6693 6.056 44.5813 6.02667 44.5173 5.968C44.4533 5.904 44.4213 5.816 44.4213 5.704C44.4213 5.592 44.4533 5.50667 44.5173 5.448C44.5813 5.38933 44.6693 5.36 44.7813 5.36H48.9973C49.1146 5.36 49.2053 5.38933 49.2693 5.448C49.3333 5.50667 49.3653 5.592 49.3653 5.704C49.3653 5.816 49.3333 5.904 49.2693 5.968C49.2053 6.02667 49.1146 6.056 48.9973 6.056H47.3013V10.632C47.3013 10.7653 47.2666 10.8693 47.1973 10.944C47.1333 11.0187 47.032 11.056 46.8933 11.056ZM50.4079 11.056C50.2746 11.056 50.1706 11.0187 50.0959 10.944C50.0266 10.8693 49.9919 10.7653 49.9919 10.632V5.728C49.9919 5.58933 50.0266 5.48533 50.0959 5.416C50.1706 5.34133 50.2746 5.304 50.4079 5.304C50.5413 5.304 50.6426 5.34133 50.7119 5.416C50.7866 5.48533 50.8239 5.58933 50.8239 5.728V10.632C50.8239 10.7653 50.7893 10.8693 50.7199 10.944C50.6506 11.0187 50.5466 11.056 50.4079 11.056ZM54.0126 11.072C53.7672 11.072 53.5272 11.0533 53.2926 11.016C53.0579 10.9787 52.8366 10.9227 52.6286 10.848C52.4206 10.768 52.2339 10.672 52.0686 10.56C51.9886 10.5013 51.9326 10.4347 51.9006 10.36C51.8739 10.2853 51.8659 10.2133 51.8766 10.144C51.8926 10.0693 51.9246 10.0053 51.9726 9.952C52.0206 9.89867 52.0792 9.86667 52.1486 9.856C52.2179 9.84 52.2952 9.86133 52.3806 9.92C52.6206 10.0747 52.8739 10.1893 53.1406 10.264C53.4072 10.3333 53.6979 10.368 54.0126 10.368C54.4659 10.368 54.7992 10.288 55.0126 10.128C55.2312 9.96267 55.3406 9.74933 55.3406 9.488C55.3406 9.27467 55.2632 9.10667 55.1086 8.984C54.9539 8.856 54.6952 8.75467 54.3326 8.68L53.4766 8.504C52.9699 8.39733 52.5912 8.22133 52.3406 7.976C52.0952 7.73067 51.9726 7.4 51.9726 6.984C51.9726 6.73333 52.0232 6.504 52.1246 6.296C52.2312 6.088 52.3779 5.90933 52.5646 5.76C52.7512 5.60533 52.9752 5.488 53.2366 5.408C53.4979 5.328 53.7832 5.288 54.0926 5.288C54.4232 5.288 54.7326 5.33067 55.0206 5.416C55.3139 5.50133 55.5752 5.632 55.8046 5.808C55.8739 5.856 55.9192 5.91733 55.9406 5.992C55.9672 6.06133 55.9726 6.13067 55.9566 6.2C55.9459 6.26933 55.9166 6.328 55.8686 6.376C55.8206 6.424 55.7592 6.45333 55.6846 6.464C55.6099 6.46933 55.5272 6.44267 55.4366 6.384C55.2286 6.24533 55.0152 6.14667 54.7966 6.088C54.5832 6.024 54.3459 5.992 54.0846 5.992C53.8232 5.992 53.5939 6.032 53.3966 6.112C53.2046 6.192 53.0552 6.304 52.9486 6.448C52.8472 6.592 52.7966 6.76267 52.7966 6.96C52.7966 7.184 52.8686 7.36267 53.0126 7.496C53.1566 7.62933 53.3966 7.73067 53.7326 7.8L54.5806 7.976C55.1139 8.088 55.5112 8.26133 55.7726 8.496C56.0339 8.73067 56.1646 9.04267 56.1646 9.432C56.1646 9.68267 56.1139 9.90933 56.0126 10.112C55.9112 10.3093 55.7672 10.48 55.5806 10.624C55.3939 10.768 55.1672 10.88 54.9006 10.96C54.6392 11.0347 54.3432 11.072 54.0126 11.072Z" fill="url(#paint0_linear_168_800)"/>
<path d="M31.104 19.072C30.5707 19.072 30.104 18.9547 29.704 18.72C29.3093 18.48 29.0027 18.144 28.784 17.712C28.5707 17.2747 28.464 16.7627 28.464 16.176C28.464 15.7333 28.5253 15.336 28.648 14.984C28.7707 14.6267 28.9467 14.3227 29.176 14.072C29.4053 13.816 29.6827 13.6213 30.008 13.488C30.3333 13.3547 30.6987 13.288 31.104 13.288C31.6427 13.288 32.1093 13.4053 32.504 13.64C32.8987 13.8747 33.2027 14.208 33.416 14.64C33.6347 15.072 33.744 15.5813 33.744 16.168C33.744 16.6107 33.6827 17.0107 33.56 17.368C33.4373 17.7253 33.2587 18.032 33.024 18.288C32.7947 18.544 32.5173 18.7387 32.192 18.872C31.8667 19.0053 31.504 19.072 31.104 19.072ZM31.104 18.352C31.4773 18.352 31.7947 18.2667 32.056 18.096C32.3227 17.9253 32.5253 17.6773 32.664 17.352C32.808 17.0267 32.88 16.6347 32.88 16.176C32.88 15.488 32.7253 14.9547 32.416 14.576C32.1067 14.1973 31.6693 14.008 31.104 14.008C30.7307 14.008 30.4107 14.0933 30.144 14.264C29.8827 14.4293 29.68 14.6747 29.536 15C29.3973 15.3253 29.328 15.7173 29.328 16.176C29.328 16.8587 29.4827 17.392 29.792 17.776C30.1067 18.16 30.544 18.352 31.104 18.352ZM35.2511 19.056C35.1285 19.056 35.0325 19.0213 34.9631 18.952C34.8938 18.8827 34.8591 18.784 34.8591 18.656V13.72C34.8591 13.5867 34.8911 13.4853 34.9551 13.416C35.0245 13.3413 35.1151 13.304 35.2271 13.304C35.3231 13.304 35.3951 13.3227 35.4431 13.36C35.4965 13.392 35.5578 13.4533 35.6271 13.544L38.9231 17.888H38.7231V13.696C38.7231 13.5733 38.7551 13.4773 38.8191 13.408C38.8885 13.3387 38.9845 13.304 39.1071 13.304C39.2351 13.304 39.3311 13.3387 39.3951 13.408C39.4591 13.4773 39.4911 13.5733 39.4911 13.696V18.664C39.4911 18.7867 39.4591 18.8827 39.3951 18.952C39.3365 19.0213 39.2565 19.056 39.1551 19.056C39.0591 19.056 38.9791 19.0373 38.9151 19C38.8565 18.9627 38.7925 18.8987 38.7231 18.808L35.4431 14.472H35.6271V18.656C35.6271 18.784 35.5951 18.8827 35.5311 18.952C35.4671 19.0213 35.3738 19.056 35.2511 19.056ZM43.4444 19.072C42.8311 19.072 42.3138 18.9573 41.8924 18.728C41.4711 18.4933 41.1511 18.16 40.9324 17.728C40.7191 17.296 40.6124 16.7813 40.6124 16.184C40.6124 15.736 40.6738 15.336 40.7964 14.984C40.9244 14.6267 41.1058 14.3227 41.3404 14.072C41.5804 13.816 41.8711 13.6213 42.2124 13.488C42.5591 13.3547 42.9511 13.288 43.3884 13.288C43.7084 13.288 44.0231 13.3307 44.3324 13.416C44.6418 13.496 44.9244 13.6293 45.1804 13.816C45.2551 13.8693 45.3031 13.9307 45.3244 14C45.3458 14.0693 45.3458 14.1413 45.3244 14.216C45.3084 14.2853 45.2738 14.3467 45.2204 14.4C45.1724 14.4533 45.1111 14.4853 45.0364 14.496C44.9671 14.5067 44.8898 14.4853 44.8044 14.432C44.5964 14.288 44.3778 14.184 44.1484 14.12C43.9191 14.0507 43.6658 14.016 43.3884 14.016C42.9724 14.016 42.6204 14.1013 42.3324 14.272C42.0498 14.4427 41.8364 14.6907 41.6924 15.016C41.5484 15.336 41.4764 15.7253 41.4764 16.184C41.4764 16.8933 41.6444 17.432 41.9804 17.8C42.3164 18.168 42.8151 18.352 43.4764 18.352C43.7164 18.352 43.9511 18.3307 44.1804 18.288C44.4151 18.24 44.6391 18.1733 44.8524 18.088L44.6844 18.504V16.64H43.6524C43.5458 16.64 43.4604 16.6133 43.3964 16.56C43.3378 16.5013 43.3084 16.4213 43.3084 16.32C43.3084 16.2187 43.3378 16.144 43.3964 16.096C43.4604 16.0427 43.5458 16.016 43.6524 16.016H45.0364C45.1484 16.016 45.2338 16.0453 45.2924 16.104C45.3511 16.1627 45.3804 16.248 45.3804 16.36V18.376C45.3804 18.472 45.3618 18.5547 45.3244 18.624C45.2924 18.688 45.2364 18.736 45.1564 18.768C44.9271 18.8587 44.6578 18.9333 44.3484 18.992C44.0391 19.0453 43.7378 19.072 43.4444 19.072ZM47.072 19.056C46.9387 19.056 46.8347 19.0187 46.76 18.944C46.6907 18.8693 46.656 18.7653 46.656 18.632V13.72C46.656 13.5813 46.6907 13.4773 46.76 13.408C46.8347 13.3387 46.9387 13.304 47.072 13.304C47.2053 13.304 47.3067 13.3387 47.376 13.408C47.4507 13.4773 47.488 13.5813 47.488 13.72V15.896H47.504L49.96 13.52C50.04 13.4453 50.1147 13.392 50.184 13.36C50.2587 13.3227 50.3413 13.304 50.432 13.304C50.5547 13.304 50.6427 13.336 50.696 13.4C50.7547 13.4587 50.7787 13.5307 50.768 13.616C50.7573 13.7013 50.712 13.784 50.632 13.864L48.08 16.296L48.096 15.888L50.752 18.448C50.848 18.5387 50.8987 18.632 50.904 18.728C50.9093 18.824 50.88 18.904 50.816 18.968C50.752 19.0267 50.6613 19.056 50.544 19.056C50.4373 19.056 50.352 19.0347 50.288 18.992C50.224 18.9493 50.1493 18.888 50.064 18.808L47.504 16.368H47.488V18.632C47.488 18.7653 47.4533 18.8693 47.384 18.944C47.3147 19.0187 47.2107 19.056 47.072 19.056ZM52.2126 19.056C52.0793 19.056 51.9753 19.0187 51.9006 18.944C51.8313 18.8693 51.7966 18.7653 51.7966 18.632V13.728C51.7966 13.5893 51.8313 13.4853 51.9006 13.416C51.9753 13.3413 52.0793 13.304 52.2126 13.304C52.346 13.304 52.4473 13.3413 52.5166 13.416C52.5913 13.4853 52.6286 13.5893 52.6286 13.728V18.632C52.6286 18.7653 52.594 18.8693 52.5246 18.944C52.4553 19.0187 52.3513 19.056 52.2126 19.056ZM54.3533 19.056C54.2199 19.056 54.1159 19.0187 54.0413 18.944C53.9719 18.8693 53.9373 18.7653 53.9373 18.632V13.784C53.9373 13.6453 53.9746 13.5413 54.0493 13.472C54.1239 13.3973 54.2279 13.36 54.3613 13.36H56.2733C56.8813 13.36 57.3506 13.504 57.6813 13.792C58.0119 14.08 58.1773 14.488 58.1773 15.016C58.1773 15.3573 58.1026 15.6507 57.9533 15.896C57.8039 16.1413 57.5853 16.328 57.2973 16.456C57.0146 16.584 56.6733 16.648 56.2733 16.648L56.3453 16.536H56.5533C56.7666 16.536 56.9506 16.5893 57.1053 16.696C57.2653 16.8027 57.4093 16.9733 57.5373 17.208L58.2253 18.488C58.2786 18.584 58.3026 18.6773 58.2973 18.768C58.2973 18.8533 58.2653 18.9227 58.2013 18.976C58.1426 19.0293 58.0573 19.056 57.9453 19.056C57.8279 19.056 57.7319 19.032 57.6573 18.984C57.5879 18.9307 57.5239 18.8533 57.4653 18.752L56.6253 17.2C56.5133 16.992 56.3853 16.8533 56.2413 16.784C56.0973 16.7093 55.9079 16.672 55.6733 16.672H54.7693V18.632C54.7693 18.7653 54.7346 18.8693 54.6653 18.944C54.5959 19.0187 54.4919 19.056 54.3533 19.056ZM54.7693 16.048H56.1373C56.5426 16.048 56.8493 15.9627 57.0573 15.792C57.2653 15.6213 57.3693 15.368 57.3693 15.032C57.3693 14.7013 57.2653 14.4507 57.0573 14.28C56.8493 14.1093 56.5426 14.024 56.1373 14.024H54.7693V16.048ZM59.6553 17.48C59.57 17.48 59.5033 17.4533 59.4553 17.4C59.4126 17.3467 59.386 17.272 59.3753 17.176L59.1833 13.832C59.1726 13.672 59.2073 13.544 59.2873 13.448C59.3673 13.352 59.49 13.304 59.6553 13.304C59.81 13.304 59.9273 13.352 60.0073 13.448C60.0873 13.544 60.1193 13.672 60.1033 13.832L59.9113 17.176C59.906 17.272 59.8793 17.3467 59.8313 17.4C59.7886 17.4533 59.73 17.48 59.6553 17.48ZM59.6553 19.032C59.5006 19.032 59.3753 18.984 59.2793 18.888C59.1833 18.792 59.1353 18.6693 59.1353 18.52C59.1353 18.3707 59.1833 18.2507 59.2793 18.16C59.3753 18.064 59.5006 18.016 59.6553 18.016C59.81 18.016 59.9326 18.064 60.0233 18.16C60.114 18.2507 60.1593 18.3707 60.1593 18.52C60.1593 18.6693 60.114 18.792 60.0233 18.888C59.9326 18.984 59.81 19.032 59.6553 19.032Z" fill="url(#paint1_linear_168_800)"/>
<defs>
<linearGradient id="paint0_linear_168_800" x1="57.4632" y1="9.59574" x2="27.6247" y2="7.16347" gradientUnits="userSpaceOnUse">
<stop stop-color="#00A59B"/>
<stop offset="1" stop-color="#015591"/>
</linearGradient>
<linearGradient id="paint1_linear_168_800" x1="61.5271" y1="17.5957" x2="27.6389" y2="14.4523" gradientUnits="userSpaceOnUse">
<stop stop-color="#00A59B"/>
<stop offset="1" stop-color="#015591"/>
</linearGradient>
<clipPath id="clip0_168_800">
<rect width="16" height="16" fill="white" transform="translate(8 4)"/>
</clipPath>
</defs>
</svg>
