<svg width="17" height="16" viewBox="0 0 17 16" fill="none" xmlns="http://www.w3.org/2000/svg">
<path d="M14.4334 6.56667L14.8267 13.16C14.84 13.34 14.7534 13.46 14.7067 13.5133C14.6534 13.5733 14.54 13.6667 14.3534 13.6667H12.5334L13.9734 6.56667H14.4334ZM15.1667 4L15.16 4.01333C15.1734 4.17333 15.16 4.34 15.12 4.50667L10.2067 13.5267C10.0467 14.2 9.44669 14.6667 8.75336 14.6667H14.3534C15.2134 14.6667 15.8934 13.94 15.8267 13.08L15.1667 4Z" fill="#00A59B"/>
<path d="M8.13333 1.49333C8.19999 1.22666 8.03333 0.953328 7.76666 0.886661C7.49999 0.826661 7.22666 0.986661 7.15999 1.25333L6.82666 2.63333H7.85333L8.13333 1.49333Z" fill="#00A59B"/>
<path d="M12.5334 1.47331C12.5934 1.19997 12.42 0.939975 12.1467 0.879975C11.88 0.819975 11.6134 0.993308 11.5534 1.26664L11.2534 2.64664H12.28L12.5334 1.47331Z" fill="#00A59B"/>
<path d="M15.0466 3.55331C14.8266 3.01998 14.3066 2.63998 13.6666 2.63998H12.28L11.9066 4.36665C11.8533 4.59998 11.6466 4.75998 11.42 4.75998C11.3866 4.75998 11.3466 4.75998 11.3133 4.74665C11.0466 4.68665 10.8733 4.41998 10.9266 4.15331L11.2533 2.63331H7.85331L7.43331 4.36665C7.37998 4.59331 7.17331 4.74665 6.94665 4.74665C6.90665 4.74665 6.86665 4.73998 6.82665 4.73331C6.55998 4.66665 6.39331 4.39998 6.45998 4.12665L6.81998 2.62665H5.46665C4.81331 2.62665 4.23331 3.05331 4.03998 3.67998L1.23331 12.7133C0.939979 13.68 1.65331 14.6666 2.65998 14.6666H11.42C12.1133 14.6666 12.7133 14.2 12.8733 13.5266L15.12 4.50665C15.16 4.33998 15.1733 4.17331 15.16 4.01331C15.1466 3.85331 15.1133 3.69331 15.0466 3.55331ZM10.3 11.1666H4.96665C4.69331 11.1666 4.46665 10.94 4.46665 10.6666C4.46665 10.3933 4.69331 10.1666 4.96665 10.1666H10.3C10.5733 10.1666 10.8 10.3933 10.8 10.6666C10.8 10.94 10.5733 11.1666 10.3 11.1666ZM10.9666 8.49998H5.63331C5.35998 8.49998 5.13331 8.27331 5.13331 7.99998C5.13331 7.72665 5.35998 7.49998 5.63331 7.49998H10.9666C11.24 7.49998 11.4666 7.72665 11.4666 7.99998C11.4666 8.27331 11.24 8.49998 10.9666 8.49998Z" fill="#00A59B"/>
</svg>
