<svg width="60" height="60" viewBox="0 0 60 60" fill="none" xmlns="http://www.w3.org/2000/svg">
<path fill-rule="evenodd" clip-rule="evenodd" d="M0.75 30C0.75 13.845 13.845 0.75 30 0.75C46.155 0.75 59.25 13.845 59.25 30C59.25 46.155 46.155 59.25 30 59.25C13.845 59.25 0.75 46.155 0.75 30ZM40.83 24.558C41.01 24.3182 41.1402 24.0447 41.2131 23.7538C41.2859 23.4629 41.2998 23.1604 41.2541 22.8641C41.2083 22.5677 41.1037 22.2835 40.9466 22.0281C40.7894 21.7727 40.5827 21.5513 40.3388 21.377C40.0948 21.2026 39.8184 21.0787 39.5259 21.0127C39.2334 20.9466 38.9307 20.9397 38.6354 20.9924C38.3402 21.045 38.0585 21.1562 37.8068 21.3192C37.5552 21.4823 37.3387 21.694 37.17 21.942L27.462 35.532L22.59 30.66C22.1635 30.2626 21.5993 30.0462 21.0164 30.0565C20.4335 30.0668 19.8774 30.3029 19.4651 30.7151C19.0529 31.1274 18.8168 31.6835 18.8065 32.2664C18.7962 32.8493 19.0126 33.4135 19.41 33.84L26.16 40.59C26.391 40.8208 26.6694 40.9986 26.976 41.1109C27.2825 41.2233 27.6099 41.2676 27.9353 41.2408C28.2607 41.214 28.5764 41.1166 28.8604 40.9556C29.1444 40.7945 29.39 40.5735 29.58 40.308L40.83 24.558Z" fill="url(#paint0_linear_153_1778)"/>
<defs>
<linearGradient id="paint0_linear_153_1778" x1="60.1844" y1="41.6689" x2="-0.376386" y2="40.3071" gradientUnits="userSpaceOnUse">
<stop stop-color="#00A59B"/>
<stop offset="1" stop-color="#015591"/>
</linearGradient>
</defs>
</svg>
