<svg width="152" height="23" viewBox="0 0 152 23" fill="none" xmlns="http://www.w3.org/2000/svg">
<path d="M2.576 18.216C1.968 18.216 1.504 18.048 1.184 17.712C0.864 17.376 0.704 16.904 0.704 16.296V2.76C0.704 2.152 0.864 1.688 1.184 1.368C1.504 1.032 1.968 0.863999 2.576 0.863999C3.168 0.863999 3.624 1.032 3.944 1.368C4.264 1.688 4.424 2.152 4.424 2.76V8.448H4.472L10.856 1.776C11.128 1.488 11.408 1.272 11.696 1.128C12 0.967999 12.344 0.887999 12.728 0.887999C13.288 0.887999 13.688 1.032 13.928 1.32C14.184 1.608 14.296 1.944 14.264 2.328C14.232 2.712 14.056 3.072 13.736 3.408L7.328 9.96L7.352 8.352L14.072 15.528C14.44 15.928 14.624 16.336 14.624 16.752C14.64 17.168 14.504 17.52 14.216 17.808C13.944 18.08 13.536 18.216 12.992 18.216C12.528 18.216 12.152 18.12 11.864 17.928C11.592 17.736 11.288 17.456 10.952 17.088L4.472 10.272H4.424V16.296C4.424 16.904 4.264 17.376 3.944 17.712C3.64 18.048 3.184 18.216 2.576 18.216ZM19.5363 18.192C18.9443 18.192 18.4883 18.024 18.1683 17.688C17.8643 17.336 17.7123 16.848 17.7123 16.224V8.016C17.7123 7.376 17.8643 6.888 18.1683 6.552C18.4883 6.2 18.9443 6.024 19.5363 6.024C20.1123 6.024 20.5523 6.2 20.8563 6.552C21.1763 6.888 21.3363 7.376 21.3363 8.016V16.224C21.3363 16.848 21.1843 17.336 20.8803 17.688C20.5763 18.024 20.1283 18.192 19.5363 18.192ZM19.5363 4.056C18.8643 4.056 18.3443 3.904 17.9763 3.6C17.6243 3.28 17.4483 2.832 17.4483 2.256C17.4483 1.664 17.6243 1.216 17.9763 0.912C18.3443 0.591999 18.8643 0.431999 19.5363 0.431999C20.2083 0.431999 20.7203 0.591999 21.0723 0.912C21.4243 1.216 21.6003 1.664 21.6003 2.256C21.6003 2.832 21.4243 3.28 21.0723 3.6C20.7203 3.904 20.2083 4.056 19.5363 4.056ZM26.0062 18.216C25.3982 18.216 24.9342 18.056 24.6142 17.736C24.2942 17.416 24.1342 16.96 24.1342 16.368V7.848C24.1342 7.256 24.2862 6.808 24.5902 6.504C24.9102 6.184 25.3502 6.024 25.9102 6.024C26.4862 6.024 26.9262 6.184 27.2302 6.504C27.5342 6.808 27.6862 7.256 27.6862 7.848V9.096H27.4462C27.6382 8.136 28.0622 7.392 28.7182 6.864C29.3742 6.336 30.2222 6.04 31.2622 5.976C31.6622 5.944 31.9662 6.048 32.1742 6.288C32.3982 6.512 32.5182 6.888 32.5342 7.416C32.5662 7.912 32.4622 8.304 32.2222 8.592C31.9982 8.88 31.6142 9.056 31.0702 9.12L30.5182 9.168C29.6062 9.248 28.9262 9.512 28.4782 9.96C28.0462 10.408 27.8302 11.056 27.8302 11.904V16.368C27.8302 16.96 27.6702 17.416 27.3502 17.736C27.0462 18.056 26.5982 18.216 26.0062 18.216ZM35.8488 18.192C35.2568 18.192 34.8008 18.024 34.4808 17.688C34.1768 17.336 34.0248 16.848 34.0248 16.224V8.016C34.0248 7.376 34.1768 6.888 34.4808 6.552C34.8008 6.2 35.2568 6.024 35.8488 6.024C36.4248 6.024 36.8648 6.2 37.1688 6.552C37.4888 6.888 37.6488 7.376 37.6488 8.016V16.224C37.6488 16.848 37.4968 17.336 37.1928 17.688C36.8888 18.024 36.4408 18.192 35.8488 18.192ZM35.8488 4.056C35.1768 4.056 34.6568 3.904 34.2888 3.6C33.9368 3.28 33.7608 2.832 33.7608 2.256C33.7608 1.664 33.9368 1.216 34.2888 0.912C34.6568 0.591999 35.1768 0.431999 35.8488 0.431999C36.5208 0.431999 37.0328 0.591999 37.3848 0.912C37.7368 1.216 37.9128 1.664 37.9128 2.256C37.9128 2.832 37.7368 3.28 37.3848 3.6C37.0328 3.904 36.5208 4.056 35.8488 4.056ZM42.3187 18.216C41.7267 18.216 41.2707 18.056 40.9507 17.736C40.6467 17.416 40.4947 16.96 40.4947 16.368V7.848C40.4947 7.256 40.6467 6.808 40.9507 6.504C41.2707 6.184 41.7107 6.024 42.2707 6.024C42.8467 6.024 43.2867 6.184 43.5907 6.504C43.8947 6.808 44.0467 7.256 44.0467 7.848V9.384L43.7827 8.424C44.1027 7.688 44.5987 7.096 45.2707 6.648C45.9427 6.2 46.7347 5.976 47.6467 5.976C48.5587 5.976 49.3187 6.192 49.9267 6.624C50.5347 7.056 50.9667 7.72 51.2227 8.616H50.8867C51.2387 7.8 51.7747 7.16 52.4947 6.696C53.2307 6.216 54.0707 5.976 55.0147 5.976C55.9267 5.976 56.6707 6.16 57.2467 6.528C57.8387 6.88 58.2787 7.424 58.5667 8.16C58.8547 8.88 58.9987 9.8 58.9987 10.92V16.368C58.9987 16.96 58.8387 17.416 58.5187 17.736C58.2147 18.056 57.7747 18.216 57.1987 18.216C56.6067 18.216 56.1507 18.056 55.8307 17.736C55.5267 17.416 55.3747 16.96 55.3747 16.368V11.04C55.3747 10.256 55.2467 9.688 54.9907 9.336C54.7507 8.968 54.3347 8.784 53.7427 8.784C53.0547 8.784 52.5187 9.024 52.1347 9.504C51.7507 9.984 51.5587 10.664 51.5587 11.544V16.368C51.5587 16.96 51.3987 17.416 51.0787 17.736C50.7747 18.056 50.3347 18.216 49.7587 18.216C49.1827 18.216 48.7347 18.056 48.4147 17.736C48.0947 17.416 47.9347 16.96 47.9347 16.368V11.04C47.9347 10.256 47.8067 9.688 47.5507 9.336C47.3107 8.968 46.8947 8.784 46.3027 8.784C45.6147 8.784 45.0787 9.024 44.6947 9.504C44.3107 9.984 44.1187 10.664 44.1187 11.544V16.368C44.1187 17.6 43.5187 18.216 42.3187 18.216ZM62.5668 18.216C62.1188 18.216 61.7508 18.112 61.4628 17.904C61.1908 17.696 61.0148 17.416 60.9348 17.064C60.8708 16.712 60.9428 16.32 61.1508 15.888L67.2948 2.424C67.5508 1.88 67.8548 1.488 68.2068 1.248C68.5588 0.991999 68.9668 0.863999 69.4308 0.863999C69.8948 0.863999 70.3028 0.991999 70.6548 1.248C71.0068 1.488 71.3028 1.88 71.5428 2.424L77.7348 15.888C77.9428 16.32 78.0148 16.72 77.9508 17.088C77.9028 17.44 77.7428 17.72 77.4708 17.928C77.1988 18.12 76.8468 18.216 76.4148 18.216C75.8708 18.216 75.4468 18.088 75.1428 17.832C74.8548 17.576 74.5988 17.176 74.3748 16.632L72.9348 13.296L74.4228 14.328H64.4148L65.9028 13.296L64.4868 16.632C64.2468 17.192 63.9908 17.6 63.7188 17.856C63.4628 18.096 63.0788 18.216 62.5668 18.216ZM69.3828 5.04L66.3108 12.36L65.6628 11.424H73.1748L72.5268 12.36L69.4308 5.04H69.3828ZM78.7891 22.512C78.3571 22.528 78.0131 22.456 77.7571 22.296C77.5011 22.136 77.3251 21.928 77.2291 21.672C77.1331 21.432 77.1091 21.184 77.1571 20.928C77.1891 20.672 77.2931 20.448 77.4691 20.256C77.6451 20.064 77.8851 19.952 78.1891 19.92C78.8131 19.872 79.2611 19.696 79.5331 19.392C79.8211 19.104 79.9651 18.656 79.9651 18.048V7.848C79.9651 7.256 80.1251 6.808 80.4451 6.504C80.7651 6.184 81.2131 6.024 81.7891 6.024C82.3651 6.024 82.8051 6.184 83.1091 6.504C83.4291 6.808 83.5891 7.256 83.5891 7.848V17.712C83.5891 18.768 83.4131 19.64 83.0611 20.328C82.7251 21.016 82.2051 21.536 81.5011 21.888C80.7971 22.256 79.8931 22.464 78.7891 22.512ZM81.7651 4.056C81.1091 4.056 80.5971 3.904 80.2291 3.6C79.8771 3.28 79.7011 2.832 79.7011 2.256C79.7011 1.664 79.8771 1.216 80.2291 0.912C80.5971 0.591999 81.1091 0.431999 81.7651 0.431999C82.4371 0.431999 82.9491 0.591999 83.3011 0.912C83.6531 1.216 83.8291 1.664 83.8291 2.256C83.8291 2.832 83.6531 3.28 83.3011 3.6C82.9491 3.904 82.4371 4.056 81.7651 4.056ZM90.3916 18.264C89.5276 18.264 88.7516 18.096 88.0636 17.76C87.3756 17.424 86.8396 16.968 86.4556 16.392C86.0716 15.816 85.8796 15.168 85.8796 14.448C85.8796 13.584 86.1036 12.904 86.5516 12.408C86.9996 11.896 87.7276 11.536 88.7356 11.328C89.7436 11.104 91.0796 10.992 92.7436 10.992H94.0156V12.864H92.7676C91.9516 12.864 91.2876 12.912 90.7756 13.008C90.2796 13.088 89.9196 13.232 89.6956 13.44C89.4876 13.648 89.3836 13.936 89.3836 14.304C89.3836 14.752 89.5356 15.12 89.8396 15.408C90.1596 15.696 90.6156 15.84 91.2076 15.84C91.6716 15.84 92.0796 15.736 92.4316 15.528C92.7996 15.304 93.0876 15.008 93.2956 14.64C93.5036 14.256 93.6076 13.824 93.6076 13.344V10.584C93.6076 9.88 93.4476 9.384 93.1276 9.096C92.8076 8.792 92.2636 8.64 91.4956 8.64C91.0636 8.64 90.5916 8.696 90.0796 8.808C89.5836 8.904 89.0316 9.072 88.4236 9.312C88.0716 9.472 87.7596 9.512 87.4876 9.432C87.2156 9.336 87.0076 9.176 86.8636 8.952C86.7196 8.712 86.6476 8.456 86.6476 8.184C86.6476 7.896 86.7276 7.624 86.8876 7.368C87.0476 7.096 87.3116 6.896 87.6796 6.768C88.4316 6.464 89.1356 6.256 89.7916 6.144C90.4636 6.032 91.0796 5.976 91.6396 5.976C92.8716 5.976 93.8796 6.16 94.6636 6.528C95.4636 6.88 96.0636 7.432 96.4636 8.184C96.8636 8.92 97.0636 9.872 97.0636 11.04V16.368C97.0636 16.96 96.9196 17.416 96.6316 17.736C96.3436 18.056 95.9276 18.216 95.3836 18.216C94.8396 18.216 94.4156 18.056 94.1116 17.736C93.8236 17.416 93.6796 16.96 93.6796 16.368V15.48L93.8476 15.624C93.7516 16.168 93.5436 16.64 93.2236 17.04C92.9196 17.424 92.5276 17.728 92.0476 17.952C91.5676 18.16 91.0156 18.264 90.3916 18.264ZM101.183 12.984C100.783 12.984 100.439 12.848 100.151 12.576C99.879 12.304 99.743 11.968 99.743 11.568C99.743 11.152 99.879 10.808 100.151 10.536C100.439 10.264 100.783 10.128 101.183 10.128H106.127C106.527 10.128 106.863 10.264 107.135 10.536C107.423 10.808 107.567 11.152 107.567 11.568C107.567 11.968 107.423 12.304 107.135 12.576C106.863 12.848 106.527 12.984 106.127 12.984H101.183ZM115.013 18.264C114.309 18.264 113.581 18.2 112.829 18.072C112.093 17.944 111.421 17.728 110.813 17.424C110.493 17.264 110.261 17.064 110.117 16.824C109.989 16.568 109.933 16.312 109.949 16.056C109.965 15.8 110.045 15.568 110.189 15.36C110.349 15.152 110.549 15.016 110.789 14.952C111.045 14.872 111.325 14.896 111.629 15.024C112.285 15.296 112.885 15.488 113.429 15.6C113.973 15.712 114.509 15.768 115.037 15.768C115.725 15.768 116.221 15.664 116.525 15.456C116.845 15.232 117.005 14.944 117.005 14.592C117.005 14.272 116.901 14.032 116.693 13.872C116.485 13.712 116.181 13.6 115.781 13.536L113.261 13.08C112.269 12.904 111.501 12.544 110.957 12C110.429 11.44 110.165 10.728 110.165 9.864C110.165 9.064 110.389 8.376 110.837 7.8C111.285 7.208 111.901 6.76 112.685 6.456C113.485 6.136 114.389 5.976 115.397 5.976C116.117 5.976 116.781 6.04 117.389 6.168C117.997 6.296 118.581 6.504 119.141 6.792C119.429 6.936 119.629 7.128 119.741 7.368C119.869 7.608 119.909 7.856 119.861 8.112C119.829 8.368 119.733 8.6 119.573 8.808C119.413 9.016 119.205 9.152 118.949 9.216C118.709 9.28 118.429 9.248 118.109 9.12C117.597 8.88 117.125 8.712 116.693 8.616C116.261 8.504 115.845 8.448 115.445 8.448C114.725 8.448 114.205 8.568 113.885 8.808C113.565 9.032 113.405 9.32 113.405 9.672C113.405 9.944 113.493 10.176 113.669 10.368C113.861 10.544 114.149 10.664 114.533 10.728L117.053 11.184C118.093 11.36 118.885 11.712 119.429 12.24C119.973 12.752 120.245 13.456 120.245 14.352C120.245 15.568 119.765 16.528 118.805 17.232C117.861 17.92 116.597 18.264 115.013 18.264ZM127.981 18.264C126.877 18.264 125.949 18.08 125.197 17.712C124.461 17.344 123.909 16.808 123.541 16.104C123.189 15.4 123.013 14.512 123.013 13.44V8.928H122.005C121.557 8.928 121.205 8.808 120.949 8.568C120.709 8.328 120.589 8 120.589 7.584C120.589 7.136 120.709 6.8 120.949 6.576C121.205 6.336 121.557 6.216 122.005 6.216H123.013V4.392C123.013 3.784 123.173 3.328 123.493 3.024C123.813 2.704 124.261 2.544 124.837 2.544C125.429 2.544 125.877 2.704 126.181 3.024C126.485 3.328 126.637 3.784 126.637 4.392V6.216H128.917C129.365 6.216 129.709 6.336 129.949 6.576C130.189 6.8 130.309 7.136 130.309 7.584C130.309 8 130.189 8.328 129.949 8.568C129.709 8.808 129.365 8.928 128.917 8.928H126.637V13.296C126.637 13.968 126.789 14.472 127.093 14.808C127.413 15.144 127.917 15.312 128.605 15.312C128.845 15.312 129.069 15.288 129.277 15.24C129.485 15.192 129.677 15.16 129.853 15.144C130.077 15.128 130.261 15.2 130.405 15.36C130.549 15.504 130.621 15.832 130.621 16.344C130.621 16.728 130.557 17.064 130.429 17.352C130.301 17.64 130.077 17.848 129.757 17.976C129.549 18.056 129.261 18.12 128.893 18.168C128.541 18.232 128.237 18.264 127.981 18.264ZM134.099 18.192C133.507 18.192 133.051 18.024 132.731 17.688C132.427 17.336 132.275 16.848 132.275 16.224V8.016C132.275 7.376 132.427 6.888 132.731 6.552C133.051 6.2 133.507 6.024 134.099 6.024C134.675 6.024 135.115 6.2 135.419 6.552C135.739 6.888 135.899 7.376 135.899 8.016V16.224C135.899 16.848 135.747 17.336 135.443 17.688C135.139 18.024 134.691 18.192 134.099 18.192ZM134.099 4.056C133.427 4.056 132.907 3.904 132.539 3.6C132.187 3.28 132.011 2.832 132.011 2.256C132.011 1.664 132.187 1.216 132.539 0.912C132.907 0.591999 133.427 0.431999 134.099 0.431999C134.771 0.431999 135.283 0.591999 135.635 0.912C135.987 1.216 136.163 1.664 136.163 2.256C136.163 2.832 135.987 3.28 135.635 3.6C135.283 3.904 134.771 4.056 134.099 4.056ZM140.521 22.536C139.929 22.536 139.473 22.376 139.153 22.056C138.849 21.752 138.697 21.296 138.697 20.688V7.848C138.697 7.256 138.849 6.808 139.153 6.504C139.473 6.184 139.913 6.024 140.473 6.024C141.065 6.024 141.513 6.184 141.817 6.504C142.121 6.808 142.273 7.256 142.273 7.848V9.48L142.009 8.544C142.249 7.776 142.729 7.16 143.449 6.696C144.185 6.216 145.025 5.976 145.969 5.976C146.993 5.976 147.889 6.224 148.657 6.72C149.441 7.216 150.049 7.92 150.481 8.832C150.913 9.744 151.129 10.832 151.129 12.096C151.129 13.36 150.913 14.456 150.481 15.384C150.049 16.312 149.449 17.024 148.681 17.52C147.913 18.016 147.009 18.264 145.969 18.264C145.041 18.264 144.217 18.04 143.497 17.592C142.777 17.128 142.289 16.528 142.033 15.792H142.321V20.688C142.321 21.296 142.161 21.752 141.841 22.056C141.537 22.376 141.097 22.536 140.521 22.536ZM144.889 15.552C145.401 15.552 145.849 15.424 146.233 15.168C146.633 14.912 146.937 14.536 147.145 14.04C147.369 13.528 147.481 12.88 147.481 12.096C147.481 10.928 147.241 10.072 146.761 9.528C146.281 8.968 145.657 8.688 144.889 8.688C144.377 8.688 143.921 8.808 143.521 9.048C143.137 9.288 142.833 9.664 142.609 10.176C142.385 10.672 142.273 11.312 142.273 12.096C142.273 13.264 142.513 14.136 142.993 14.712C143.473 15.272 144.105 15.552 144.889 15.552Z" fill="url(#paint0_linear_109_1643)"/>
<defs>
<linearGradient id="paint0_linear_109_1643" x1="154.444" y1="14.7872" x2="-0.83503" y2="-7.47246" gradientUnits="userSpaceOnUse">
<stop stop-color="#00A59B"/>
<stop offset="1" stop-color="#015591"/>
</linearGradient>
</defs>
</svg>
